<?xml version="1.0" encoding="UTF-8" standalone="no"?>
<!-- Created with Inkscape (http://www.inkscape.org/) -->

<svg
   xmlns:dc="http://purl.org/dc/elements/1.1/"
   xmlns:cc="http://creativecommons.org/ns#"
   xmlns:rdf="http://www.w3.org/1999/02/22-rdf-syntax-ns#"
   xmlns:svg="http://www.w3.org/2000/svg"
   xmlns="http://www.w3.org/2000/svg"
   xmlns:sodipodi="http://sodipodi.sourceforge.net/DTD/sodipodi-0.dtd"
   xmlns:inkscape="http://www.inkscape.org/namespaces/inkscape"
   version="1.1"
   width="100%"
   height="100%"
   viewBox="0 0 16.037005 7.0001098"
   id="Layer_1"
   xml:space="preserve"
   inkscape:version="0.48.4 r9939"
   sodipodi:docname="Eye-Camera.svg"><sodipodi:namedview
     pagecolor="#ffffff"
     bordercolor="#666666"
     borderopacity="1"
     objecttolerance="10"
     gridtolerance="10"
     guidetolerance="10"
     inkscape:pageopacity="0"
     inkscape:pageshadow="2"
     inkscape:window-width="659"
     inkscape:window-height="947"
     id="namedview14"
     showgrid="false"
     units="px"
     inkscape:snap-page="true"
     showguides="true"
     inkscape:guide-bbox="true"
     inkscape:snap-object-midpoints="true"
     inkscape:zoom="8.9168769"
     inkscape:cx="18.317187"
     inkscape:cy="-12.578593"
     inkscape:window-x="2178"
     inkscape:window-y="690"
     inkscape:window-maximized="0"
     inkscape:current-layer="g3"
     fit-margin-top="0"
     fit-margin-left="0"
     fit-margin-right="0"
     fit-margin-bottom="0"><sodipodi:guide
       orientation="1,0"
       position="16.037005,9.4673414"
       id="guide2991" /><sodipodi:guide
       orientation="0,1"
       position="29.158191,-14.532093"
       id="guide2993" /><sodipodi:guide
       orientation="0,1"
       position="7.1774006,-5.4951976"
       id="guide2992" /></sodipodi:namedview><metadata
     id="metadata25"><rdf:RDF><cc:Work
         rdf:about=""><dc:format>image/svg+xml</dc:format><dc:type
           rdf:resource="http://purl.org/dc/dcmitype/StillImage" /><dc:title /></cc:Work></rdf:RDF></metadata><defs
     id="defs23" /><g
     transform="matrix(0.01252891,0,0,0.01252891,-0.38839621,4.9904905)"
     id="g3"><path
       d="m 1311,-118.95972 c 0,0 -286.5378,279.3583 -640.00002,279.3583 C 317.53779,160.39858 31,-118.95972 31,-118.95972 c 0,0 286.53774,-279.35829 639.99998,-279.35829 353.46222,0 640.00002,279.35829 640.00002,279.35829 z"
       id="path5"
       inkscape:connector-curvature="0" /><g
       id="g7"
       transform="matrix(0.49999999,0,0,0.49999999,15.5,-418.45971)"><path
         d="m 1507.3644,831.6261 c 8.1908,-85.9868 6.8108,-166.8081 5.306,-206.6722 l -92.7485,160.6452 0.1365,0.2027 c -0.031,0.0212 -0.1725,0.1157 -0.4128,0.2759 l -0.3179,0.5509 h -0.5111 c -11.4204,7.5681 -99.7214,65.3458 -204.2842,113.1478 -65.7413,30.0543 -125.0349,50.3848 -176.2341,60.427 -33.0687,6.4862 -62.8685,8.665 -89.223,6.5692 93.1363,91.6643 220.923,148.226 361.9247,148.226 38.7316,0 76.463,-4.2765 112.7566,-12.3666 19.0804,-22.5304 35.3513,-53.2766 48.5972,-91.9321 16.4992,-48.1482 28.2785,-108.3972 35.0106,-179.0738 z"
         id="path9"
         style="fill:#ffffff"
         inkscape:connector-curvature="0" /><path
         d="m 1202.6725,411.3712 h 0.5111 c 11.4207,-7.5681 99.7214,-65.3457 204.2842,-113.1477 65.7412,-30.0542 125.0348,-50.3848 176.234,-60.4269 33.0687,-6.4863 62.8685,-8.6651 89.223,-6.5692 C 1579.7885,139.563 1452.0017,83.0015 1311,83.0015 c -38.7316,0 -76.463,4.2764 -112.7566,12.3666 -19.0803,22.5305 -35.3513,53.2766 -48.5973,91.932 -16.499,48.1481 -28.2784,108.3973 -35.0105,179.0738 -8.1908,85.9868 -6.8108,166.8082 -5.306,206.6722 l 92.7484,-160.6451 -0.1364,-0.2027 c 0.031,-0.0211 0.1724,-0.1157 0.4127,-0.2759 l 0.3182,-0.5512 z"
         id="path11"
         style="fill:#ffffff"
         inkscape:connector-curvature="0" /><path
         d="m 1586.8657,253.4136 c -49.9471,9.7853 -108.0142,29.7088 -172.5878,59.2168 -78.5621,35.9 -147.8654,77.5058 -181.6364,98.741 h 185.4969 l 0.1073,-0.2195 c 0.034,0.0167 0.1865,0.0915 0.4454,0.2195 h 0.6364 l 0.2554,0.4426 c 12.2645,6.1064 106.4518,53.6884 200.1307,120.3414 58.8986,41.9065 106.1522,83.091 140.4484,122.4097 22.2083,25.4601 39.0232,50.2394 50.3865,74.1677 10.7344,-41.452 16.45,-84.9244 16.45,-129.7325 0,-134.8296 -51.7194,-257.5746 -136.3927,-349.4958 -29.0172,-5.2229 -63.7201,-3.9319 -103.7401,3.9091 z"
         id="path13"
         style="fill:#ffffff"
         inkscape:connector-curvature="0" /><path
         d="M 1748.2195,665.1135 C 1714.7716,626.7507 1668.4839,586.425 1610.6422,545.2565 1540.271,495.1696 1469.5876,455.9542 1434.312,437.3253 l 92.7485,160.6452 0.2438,-0.0168 c 0,0.0379 0.014,0.2072 0.033,0.4955 l 0.318,0.551 -0.2555,0.4425 c 0.844,13.6745 6.7305,119.0341 -4.1532,233.4891 -6.8429,71.9608 -18.8829,133.4758 -35.7858,182.8367 -10.9449,31.963 -23.9971,58.9147 -39.0378,80.7199 168.875,-46.5455 303.0535,-176.7669 355.1321,-343.2732 -9.9678,-27.8039 -28.4658,-57.2847 -55.3352,-88.1017 z"
         id="path15"
         style="fill:#ffffff"
         inkscape:connector-curvature="0" /><path
         d="m 1035.1344,944.5864 c 49.947,-9.7854 108.014,-29.7087 172.5876,-59.2168 78.5623,-35.9 147.8655,-77.5058 181.6365,-98.741 h -185.4971 l -0.1073,0.2195 c -0.034,-0.0167 -0.1865,-0.0915 -0.4454,-0.2195 h -0.6364 l -0.2554,-0.4426 C 1190.1524,780.0796 1095.9651,732.4976 1002.286,665.8448 943.3876,623.9383 896.134,582.7538 861.8378,543.4351 839.6295,517.9751 822.8146,493.1958 811.4513,469.2675 800.7169,510.7194 795.0015,554.192 795.0015,599 c 0,134.8295 51.7193,257.5745 136.3928,349.4958 29.0171,5.2226 63.72,3.9315 103.7401,-3.9094 z"
         id="path17"
         style="fill:#ffffff"
         inkscape:connector-curvature="0" /><path
         d="m 873.7805,532.8865 c 33.4479,38.3627 79.7355,78.6885 137.5771,119.857 70.3715,50.0868 141.0547,89.3022 176.3304,107.9312 l -92.7487,-160.645 -0.2438,0.0167 c 0,-0.0378 -0.014,-0.2072 -0.033,-0.4954 l -0.318,-0.551 0.2555,-0.4426 c -0.8439,-13.6744 -6.7303,-119.034 4.1532,-233.4892 6.8429,-71.9607 18.8829,-133.4758 35.7858,-182.8366 10.9451,-31.963 23.9971,-58.9148 39.0378,-80.7198 -168.8749,46.5456 -303.0535,176.7669 -355.132,343.2733 9.9678,27.8036 28.4659,57.2844 55.3353,88.1014 z"
         id="path19"
         style="fill:#ffffff"
         inkscape:connector-curvature="0" /></g></g></svg>