<?xml version="1.0" encoding="UTF-8" standalone="no"?>
<svg
   xmlns:dc="http://purl.org/dc/elements/1.1/"
   xmlns:cc="http://creativecommons.org/ns#"
   xmlns:rdf="http://www.w3.org/1999/02/22-rdf-syntax-ns#"
   xmlns:svg="http://www.w3.org/2000/svg"
   xmlns="http://www.w3.org/2000/svg"
   xmlns:sodipodi="http://sodipodi.sourceforge.net/DTD/sodipodi-0.dtd"
   xmlns:inkscape="http://www.inkscape.org/namespaces/inkscape"
   id="svg2"
   viewBox="0 0 14 14"
   height="100%"
   width="100%"
   version="1.1"
   inkscape:version="0.48.4 r9939"
   sodipodi:docname="hifi.svg">
  <sodipodi:namedview
     pagecolor="#ffffff"
     bordercolor="#666666"
     borderopacity="1"
     objecttolerance="10"
     gridtolerance="10"
     guidetolerance="10"
     inkscape:pageopacity="0"
     inkscape:pageshadow="2"
     inkscape:window-width="775"
     inkscape:window-height="480"
     id="namedview7"
     showgrid="false"
     inkscape:zoom="16.857143"
     inkscape:cx="7"
     inkscape:cy="7"
     inkscape:window-x="2223"
     inkscape:window-y="666"
     inkscape:window-maximized="0"
     inkscape:current-layer="svg2" />
  <defs
     id="defs8" />
  <metadata
     id="metadata8">
    <rdf:RDF>
      <cc:Work
         rdf:about="">
        <dc:format>image/svg+xml</dc:format>
        <dc:type
           rdf:resource="http://purl.org/dc/dcmitype/StillImage" />
        <dc:title />
      </cc:Work>
    </rdf:RDF>
  </metadata>
  <rect
     style="fill:none;stroke:none;visibility:hidden"
     id="canvas"
     y="0"
     x="0"
     height="14"
     width="14" />
  <path
     d="m 8.5118375,9.5349493 a 1.5,1.5 0 0 1 -1.5,1.4999997 1.5,1.5 0 0 1 -1.5,-1.4999997 1.5,1.5 0 0 1 1.5,-1.5 1.5,1.5 0 0 1 1.5,1.5 z M 2,0 2,14 12,14 12,0 2,0 Z m 5.0703125,0.96875 c 1.1045695,0 2,0.8954305 2,2 0,1.1045695 -0.8954305,2 -2,2 -1.1045695,0 -2,-0.8954305 -2,-2 0,-1.1045695 0.8954305,-2 2,-2 z m -0.060547,5.0195312 a 3.5,3.5 0 0 1 3.5000004,3.5 3.5,3.5 0 0 1 -3.5000004,3.4999998 3.5,3.5 0 0 1 -3.5,-3.4999998 3.5,3.5 0 0 1 3.5,-3.5 z"
     style="fill:#ac39ac;fill-opacity:1;fill-rule:evenodd;stroke:none;stroke-opacity:1"
     id="path3337" />
</svg>
