<?xml version="1.0" encoding="UTF-8" standalone="no"?>
<svg
   xmlns:dc="http://purl.org/dc/elements/1.1/"
   xmlns:cc="http://creativecommons.org/ns#"
   xmlns:rdf="http://www.w3.org/1999/02/22-rdf-syntax-ns#"
   xmlns:svg="http://www.w3.org/2000/svg"
   xmlns="http://www.w3.org/2000/svg"
   xmlns:sodipodi="http://sodipodi.sourceforge.net/DTD/sodipodi-0.dtd"
   xmlns:inkscape="http://www.inkscape.org/namespaces/inkscape"
   width="100%"
   height="100%"
   viewBox="0 1 14 12"
   id="svg2"
   version="1.1"
   inkscape:version="0.48.4 r9939"
   sodipodi:docname="car.svg">
  <metadata
     id="metadata15">
    <rdf:RDF>
      <cc:Work
         rdf:about="">
        <dc:format>image/svg+xml</dc:format>
        <dc:type
           rdf:resource="http://purl.org/dc/dcmitype/StillImage" />
      </cc:Work>
    </rdf:RDF>
  </metadata>
  <defs
     id="defs13" />
  <sodipodi:namedview
     pagecolor="#ffffff"
     bordercolor="#666666"
     borderopacity="1"
     objecttolerance="10"
     gridtolerance="10"
     guidetolerance="10"
     inkscape:pageopacity="0"
     inkscape:pageshadow="2"
     inkscape:window-width="775"
     inkscape:window-height="480"
     id="namedview11"
     showgrid="false"
     inkscape:zoom="19.666667"
     inkscape:cx="7"
     inkscape:cy="5.9862311"
     inkscape:window-x="692"
     inkscape:window-y="517"
     inkscape:window-maximized="0"
     inkscape:current-layer="svg2" />
  <path
     fill-rule="evenodd"
     id="body"
     d="M 0,9.5 A 1.5,1.5 0 0,0 1.5,11 L 12.5,11 A 1.5,1.5 0 0,0 14,9.5 L 14,6.5 A 1.5,1.5 0 0,0 12.5,5 L 1.5,5 A 1.5,1.5 0 0,0 0,6.5 Z M 1.6,7.5 a .9,.9 0 1,1 0,0.01 Z M 10.6,7.5 a .9,.9 0 1,1 0,0.01 Z"
     style="fill:#ac39ac;fill-opacity:1" />
  <g
     id="tyres"
     style="fill:#ac39ac;fill-opacity:1">
    <rect
       x="1"
       y="10"
       width="2"
       height="3"
       id="rect6"
       style="fill:#ac39ac;fill-opacity:1" />
    <rect
       x="11"
       y="10"
       width="2"
       height="3"
       id="rect8"
       style="fill:#ac39ac;fill-opacity:1" />
  </g>
  <path
     id="top"
     d="M 2,5 L 2,2.5 A 1.5,1.5 0 0,1 3.5,1 L 10.5,1 A 1.5,1.5 0 0,1 12,2.5 L 12,5 10.5,5 10.5,3.5 A 1,1 0 0,0 9.5,2.5 L 4.5,2.5 A 1,1 0 0,0 3.5,3.5 L 3.5,5 Z"
     style="fill:#ac39ac;fill-opacity:1" />
</svg>
