<?xml version="1.0" encoding="UTF-8" standalone="no"?>
<svg
   xmlns:dc="http://purl.org/dc/elements/1.1/"
   xmlns:cc="http://creativecommons.org/ns#"
   xmlns:rdf="http://www.w3.org/1999/02/22-rdf-syntax-ns#"
   xmlns:svg="http://www.w3.org/2000/svg"
   xmlns="http://www.w3.org/2000/svg"
   xmlns:sodipodi="http://sodipodi.sourceforge.net/DTD/sodipodi-0.dtd"
   xmlns:inkscape="http://www.inkscape.org/namespaces/inkscape"
   width="100%"
   height="100%"
   viewBox="0 0 14 13"
   id="svg2"
   version="1.1"
   inkscape:version="0.48.4 r9939"
   sodipodi:docname="supermarket.svg">
  <metadata
     id="metadata30">
    <rdf:RDF>
      <cc:Work
         rdf:about="">
        <dc:format>image/svg+xml</dc:format>
        <dc:type
           rdf:resource="http://purl.org/dc/dcmitype/StillImage" />
      </cc:Work>
    </rdf:RDF>
  </metadata>
  <defs
     id="defs28" />
  <sodipodi:namedview
     pagecolor="#ffffff"
     bordercolor="#666666"
     borderopacity="1"
     objecttolerance="10"
     gridtolerance="10"
     guidetolerance="10"
     inkscape:pageopacity="0"
     inkscape:pageshadow="2"
     inkscape:window-width="775"
     inkscape:window-height="480"
     id="namedview26"
     showgrid="false"
     inkscape:zoom="18.153846"
     inkscape:cx="7"
     inkscape:cy="4.9098455"
     inkscape:window-x="2223"
     inkscape:window-y="446"
     inkscape:window-maximized="0"
     inkscape:current-layer="svg2" />
  <g
     id="vbars"
     style="fill:#ac39ac;fill-opacity:1">
    <rect
       x="3.5"
       y="2.5"
       width="0.5"
       height="5"
       id="rect5"
       style="fill:#ac39ac;fill-opacity:1" />
    <rect
       x="5.5"
       y="2.5"
       width="0.5"
       height="5.5"
       id="rect7"
       style="fill:#ac39ac;fill-opacity:1" />
    <rect
       x="7.5"
       y="2.5"
       width="0.5"
       height="6"
       id="rect9"
       style="fill:#ac39ac;fill-opacity:1" />
    <rect
       x="9.5"
       y="2.5"
       width="0.5"
       height="6"
       id="rect11"
       style="fill:#ac39ac;fill-opacity:1" />
  </g>
  <g
     id="hbars"
     style="fill:#ac39ac;fill-opacity:1">
    <rect
       x="1"
       y="4"
       width="10.5"
       height="0.5"
       id="rect14"
       style="fill:#ac39ac;fill-opacity:1" />
    <rect
       x="1"
       y="6"
       width="10.5"
       height="0.5"
       id="rect16"
       style="fill:#ac39ac;fill-opacity:1" />
  </g>
  <g
     id="wheels"
     style="fill:#ac39ac;fill-opacity:1">
    <circle
       cx="9.5"
       cy="11.2"
       r="1"
       id="circle19"
       style="fill:#ac39ac;fill-opacity:1" />
    <circle
       cx="3.5"
       cy="11.2"
       r="1"
       id="circle21"
       style="fill:#ac39ac;fill-opacity:1" />
  </g>
  <path
     id="base"
     d="M 11,9 L 11,11 1.5,11 A 0.5,0.5 0 1,1 1.5,10 L 10,10 10,8.5 Z"
     style="fill:#ac39ac;fill-opacity:1" />
  <path
     id="handle"
     d="M 11.5,2 L 11.768,.75 13.25,0.2 A 0.5,0.5 0 0,1 13.6,1.25 L 12.6,1.6 12.5,2"
     style="fill:#ac39ac;fill-opacity:1" />
  <path
     id="body"
     fill-rule="evenodd"
     d="M 0,2 L 12.5,2 11,9 1,8 M 1.167,3 L 11.286,3 10.25,7.9 1.9,7.1 Z"
     style="fill:#ac39ac;fill-opacity:1" />
</svg>
