<?xml version="1.0" encoding="UTF-8" standalone="no"?>
<!-- Created with Inkscape (http://www.inkscape.org/) -->

<svg
   xmlns:dc="http://purl.org/dc/elements/1.1/"
   xmlns:cc="http://creativecommons.org/ns#"
   xmlns:rdf="http://www.w3.org/1999/02/22-rdf-syntax-ns#"
   xmlns:svg="http://www.w3.org/2000/svg"
   xmlns="http://www.w3.org/2000/svg"
   xmlns:sodipodi="http://sodipodi.sourceforge.net/DTD/sodipodi-0.dtd"
   xmlns:inkscape="http://www.inkscape.org/namespaces/inkscape"
   version="1.1"
   width="100%"
   height="100%"
   viewBox="0 0 14 14"
   id="svg2"
   inkscape:version="0.48.4 r9939"
   sodipodi:docname="travel_agency.svg">
  <sodipodi:namedview
     pagecolor="#ffffff"
     bordercolor="#666666"
     borderopacity="1"
     objecttolerance="10"
     gridtolerance="10"
     guidetolerance="10"
     inkscape:pageopacity="0"
     inkscape:pageshadow="2"
     inkscape:window-width="775"
     inkscape:window-height="480"
     id="namedview6"
     showgrid="false"
     inkscape:zoom="16.857143"
     inkscape:cx="7"
     inkscape:cy="7"
     inkscape:window-x="2134"
     inkscape:window-y="555"
     inkscape:window-maximized="0"
     inkscape:current-layer="svg2" />
  <defs
     id="defs3053" />
  <metadata
     id="metadata8">
    <rdf:RDF>
      <cc:Work
         rdf:about="">
        <dc:format>image/svg+xml</dc:format>
        <dc:type
           rdf:resource="http://purl.org/dc/dcmitype/StillImage" />
        <dc:title />
      </cc:Work>
    </rdf:RDF>
  </metadata>
  <path
     d="M 0,9 C 0,8 0,8 1,8 c 2.3333333,0 4.6666667,0 7,0 1,0 1,0 1,1 0,1.333333 0,2.666667 0,4 0,1 0,1 -1,1 C 5.6666667,14 3.3333333,14 1,14 0,14 0,14 0,13 0,11.666667 0,10.333333 0,9 z M 13,4.03125 13,7 l 1,0 0,-2.96875 -1,0 z M 11.21875,3.6875 9.59375,6.15625 10.40625,6.6875 12.0625,4.25 11.21875,3.6875 z M 9.9375,2.03125 7.125,3.1875 7.5,4.09375 10.3125,2.96875 9.9375,2.03125 z M 7,-0.03125 l 0,1 L 10.09375,1 l 0,-1 L 7,-0.03125 z M 3,8 3,6.2964824 l 3,0 L 6,8 7,8 7,6 C 7,5 7,5 6,5 5,5 4,5 3,5 2,5 2,5 2,6 L 2,8 z M 14.726968,1.4871188 c 0,1.1045695 -0.89543,2 -2,2 -1.104569,0 -2,-0.8954305 -2,-2 0,-1.10456946 0.895431,-1.99999996 2,-1.99999996 0.916949,0 1.716441,0.62354577 1.939772,1.51288116"
     id="path2996"
     style="fill:#ac39af;fill-opacity:0.94117647;fill-rule:evenodd;stroke:none" />
</svg>
